<svg width="32" height="32" viewBox="0 0 32 32" fill="none" xmlns="http://www.w3.org/2000/svg">
  <path d="M29.5 16.2c0-1-.1-2-.2-2.9H16v5.5h7.6c-.3 1.7-1.3 3.1-2.8 4v3.6h4.5c2.6-2.4 4.2-6 4.2-10.2z" fill="#4285F4"/>
  <path d="M16 30c3.8 0 7-1.2 9.3-3.4l-4.5-3.6c-1.3.9-2.9 1.4-4.8 1.4-3.7 0-6.8-2.5-7.9-5.8H3.4v3.7C5.7 26.8 10.5 30 16 30z" fill="#34A853"/>
  <path d="M8.1 18.6c-.6-1.7-.6-3.5 0-5.2V9.7H3.4c-2 4-2 8.7 0 12.6l4.7-3.7z" fill="#FBBC05"/>
  <path d="M16 7.6c2.1 0 4 .7 5.5 2.1l4.1-4.1C23 3.2 19.8 2 16 2 10.5 2 5.7 5.2 3.4 9.7l4.7 3.7c1.1-3.3 4.2-5.8 7.9-5.8z" fill="#EA4335"/>
</svg>
