<svg width="32" height="32" viewBox="0 0 32 32" fill="none" xmlns="http://www.w3.org/2000/svg">
  <path d="M29.7 14.1c.8-1.4 1.1-3 .7-4.6-.4-1.6-1.3-2.9-2.6-3.9-1.3-1-2.8-1.4-4.4-1.3-1.6.1-3.1.8-4.2 2-1.1-1.2-2.6-1.9-4.2-2-1.6-.1-3.1.3-4.4 1.3-1.3 1-2.2 2.3-2.6 3.9-.4 1.6-.1 3.2.7 4.6-.8 1.4-1.1 3-.7 4.6.4 1.6 1.3 2.9 2.6 3.9 1.3 1 2.8 1.4 4.4 1.3 1.6-.1 3.1-.8 4.2-2 1.1 1.2 2.6 1.9 4.2 2 1.6.1 3.1-.3 4.4-1.3 1.3-1 2.2-2.3 2.6-3.9.4-1.6.1-3.2-.7-4.6zm-13.7 7.6c-2.1 0-3.8-1.7-3.8-3.8s1.7-3.8 3.8-3.8 3.8 1.7 3.8 3.8-1.7 3.8-3.8 3.8z" fill="#10A37F"/>
</svg>
